# xmcd
# 
# Track frame offsets:
#     182
#     9917
#     19807
#     29347
#     37012
#     47345
#     59870
#     70315
#     82377
#     91307
#     102015
#     112842
#     122960
#     133630
#     143420
#     156225
#     167562
#     175567
#     186935
#     200655
#     212537
#     223715
#     233875
#     243635
#     256705
#     268777
#     279822
#     291232
#     302465
#     313787
# 
# Disc length: 4355
# 
# Revision: 4
# Processed by: cddbd v1.5.2PL0 Copyright (c) Steve Scherf et al.
# Submitted via: fre:ac v1.0.17
# 
DISCID=ac11011e
DTITLE=Various Artist - Kings Of Rock'n'Roll
DYEAR=1950
DGENRE=Blues
TTITLE0=Johnny and The Hurricanes - Red River Rock
TTITLE1=Bill Haley - Rock Around The Clock
TTITLE2=Little Richard - Long Tall Sally
TTITLE3=The Coasters - Yakety Yak
TTITLE4=Duane Eddy - Rebel Rouser
TTITLE5=Lloyd Price - Stagger Lee
TTITLE6=Little Richard - Lucille
TTITLE7=Frankie Ford - Sea Cruise
TTITLE8=Del Shannon - Hats Off To Larry
TTITLE9=Little Richard - Ooh My Soul
TTITLE10=Chubby Checker - Let´s Twist Again
TTITLE11=The Crystals - Da Doo Ron Ron
TTITLE12=Sam The Sham and The Pharaohs - Wolly Bully
TTITLE13=The Isley Brothers - Twist And Shout
TTITLE14=The Shangrilas - Leader Of The Pack
TTITLE15=Del Shannon - Runaway
TTITLE16=Bill Haley - See You Later Alligator
TTITLE17=Danny and The Juniors - Rock and Roll Is Here
TTITLE18=Fats Domino - Blueberry Hill
TTITLE19=Chubby Checker - The Twist
TTITLE20=Gene Chandler - Duke Of Earl
TTITLE21=The Coasters - Charlie Brown
TTITLE22=Little Richard - Good Golly Miss Molly
TTITLE23=Ray Peterson - Tell Laura I Love Her
TTITLE24=Danny and The Juniors - At The Hop
TTITLE25=Lloyd Price - Personality
TTITLE26=The Shirelles - Dedicated To The One
TTITLE27=Little Richard - Tutti Frutti
TTITLE28=Fats Domino - Ain´t That A Shame
TTITLE29=Bill Haley - Shake Rattle and Roll
EXTD=
EXTT0=
EXTT1=
EXTT2=
EXTT3=
EXTT4=
EXTT5=
EXTT6=
EXTT7=
EXTT8=
EXTT9=
EXTT10=
EXTT11=
EXTT12=
EXTT13=
EXTT14=
EXTT15=
EXTT16=
EXTT17=
EXTT18=
EXTT19=
EXTT20=
EXTT21=
EXTT22=
EXTT23=
EXTT24=
EXTT25=
EXTT26=
EXTT27=
EXTT28=
EXTT29=
PLAYORDER=
